<svg width="32" height="32" viewBox="0 0 32 32" fill="none" xmlns="http://www.w3.org/2000/svg">
<g id="Delivered">
<g id="Black">
<path id="Vector" d="M3.01489 1.48196C2.62784 1.58729 2.21638 1.93236 2.03506 2.29921C1.86071 2.6588 1.86768 1.97958 1.86768 15.9492C1.86768 25.2186 1.87814 29.0325 1.90604 29.1887C1.96183 29.5119 2.09782 29.7771 2.33493 30.0241C2.57902 30.2747 2.83357 30.4164 3.16134 30.4745C3.31825 30.4999 4.66073 30.5108 7.65601 30.5035L11.9275 30.4926L12.067 30.4127C12.3425 30.2602 12.4819 30.0204 12.4854 29.6935C12.4854 29.5192 12.4645 29.4429 12.3878 29.3013C12.2448 29.0506 12.074 28.9453 11.7462 28.9126C11.5963 28.8944 9.6645 28.8872 7.45726 28.8908L3.43681 28.8944V15.9746V3.05109H12.7644H22.092V5.2268C22.092 7.52237 22.092 7.5369 22.2593 7.76936C22.3605 7.91102 22.6499 8.06357 22.8242 8.06357C23.1555 8.06357 23.5077 7.80568 23.5879 7.50058C23.6123 7.4025 23.6262 6.63247 23.6262 5.07787C23.6262 2.95302 23.6227 2.78956 23.56 2.58253C23.4693 2.28105 23.3508 2.08491 23.1311 1.86334C22.9044 1.64178 22.7057 1.52918 22.4232 1.46743C22.2559 1.42748 20.3903 1.42021 12.7295 1.42021C3.8936 1.42021 3.23108 1.42384 3.01489 1.48196Z" fill="#060808" fill-opacity="0.12"/>
<path id="Vector_2" d="M7.83035 7.11919L6.27866 7.13735L6.11477 7.25359C5.81141 7.47515 5.69285 7.89649 5.8393 8.23066C5.92299 8.4268 6.13569 8.63383 6.29261 8.68105C6.47393 8.73191 19.1699 8.73191 19.3512 8.67742C19.5291 8.62657 19.7731 8.38684 19.8464 8.18707C19.9196 7.9873 19.8952 7.72214 19.7836 7.51511C19.6964 7.35166 19.4523 7.16641 19.2885 7.13735C19.1455 7.1083 9.83186 7.0974 7.83035 7.11919Z" fill="#060808" fill-opacity="0.12"/>
<path id="Vector_3" d="M20.6623 12.4803C20.5961 12.4876 20.3834 12.513 20.1916 12.5348C19.0409 12.6619 17.7368 13.116 16.7047 13.748C15.6934 14.3655 14.5985 15.4442 13.929 16.4758C12.7156 18.35 12.2204 20.6202 12.5378 22.8467C12.9248 25.5491 14.4381 27.8919 16.7186 29.3085C17.7473 29.9514 19.0026 30.3836 20.1986 30.5144C20.7983 30.5798 22.1094 30.5398 22.6325 30.4381C24.3864 30.1076 25.8928 29.2976 27.1794 27.99C28.7834 26.3518 29.6098 24.4994 29.8016 22.1021C29.9167 20.6456 29.6029 18.9929 28.9299 17.5691C27.8489 15.2699 25.9311 13.5809 23.567 12.8436C23.2183 12.7346 22.5174 12.582 22.1303 12.5348C21.8026 12.4912 20.8541 12.4549 20.6623 12.4803ZM22.2698 14.1984C23.2427 14.3509 24.2434 14.7541 25.0908 15.3462C26.7819 16.523 27.9047 18.3791 28.1976 20.4785C28.2918 21.165 28.2778 22.1566 28.1628 22.8286C27.7129 25.4438 25.9485 27.6231 23.56 28.513C22.6499 28.8508 22.1826 28.9307 21.1331 28.9307C20.1323 28.9271 19.7348 28.8653 18.884 28.5748C16.3071 27.6958 14.4102 25.313 14.0546 22.5089C13.9813 21.9023 13.9883 21.0524 14.072 20.4386C14.4033 18.1067 15.7876 16.0653 17.803 14.9539C19.149 14.2129 20.6693 13.955 22.2698 14.1984Z" fill="#060808" fill-opacity="0.12"/>
<path id="Vector_4" d="M20.7283 16.0051C20.6902 16.0095 20.5678 16.025 20.4575 16.0383C19.7954 16.1156 19.0451 16.392 18.4513 16.7766C17.8695 17.1524 17.2396 17.8089 16.8544 18.4367C16.1562 19.5774 15.8713 20.959 16.0539 22.3141C16.2766 23.9587 17.1473 25.3846 18.4593 26.2467C19.0511 26.638 19.7734 26.901 20.4615 26.9806C20.8066 27.0204 21.5609 26.9961 21.8618 26.9342C22.871 26.733 23.7376 26.2401 24.4779 25.4442C25.4008 24.4473 25.8762 23.3199 25.9866 21.8609C26.0528 20.9745 25.8722 19.9687 25.485 19.1021C24.8631 17.7028 23.7597 16.6749 22.3995 16.2262C22.1989 16.1599 21.7956 16.067 21.5729 16.0383C21.3844 16.0117 20.8387 15.9896 20.7283 16.0051ZM21.6532 17.0507C22.2129 17.1436 22.7887 17.3889 23.2762 17.7493C24.2492 18.4655 24.8952 19.5951 25.0637 20.8728C25.1179 21.2906 25.1099 21.8941 25.0437 22.303C24.7849 23.8946 23.7697 25.221 22.3955 25.7626C21.8719 25.9682 21.603 26.0168 20.9992 26.0168C20.4234 26.0146 20.1947 25.977 19.7052 25.8002C18.2226 25.2652 17.1312 23.8151 16.9266 22.1085C16.8845 21.7393 16.8885 21.2221 16.9366 20.8485C17.1272 19.4293 17.9237 18.1869 19.0832 17.5105C19.8576 17.0596 20.7323 16.9026 21.6532 17.0507Z" fill="#060808" fill-opacity="0.12"/>
<path id="Vector_5" d="M6.85403 12.7492C6.25079 12.771 6.18453 12.7891 5.97532 13.0325C5.65452 13.403 5.72077 13.9297 6.12874 14.2275L6.27171 14.3292L9.20423 14.3401C12.4715 14.351 12.3216 14.3619 12.5412 14.104C12.6912 13.9224 12.747 13.7698 12.747 13.5301C12.747 13.2904 12.6633 13.0942 12.4959 12.9489C12.2483 12.731 12.3495 12.7383 9.76563 12.7346C8.46151 12.731 7.15042 12.7383 6.85403 12.7492Z" fill="#060808" fill-opacity="0.12"/>
<path id="Vector_6" d="M6.83659 18.3791C6.26473 18.3973 6.19499 18.419 5.99275 18.6406C5.69985 18.9566 5.69636 19.4143 5.98577 19.723C6.23335 19.9882 6.14966 19.9809 8.23486 19.9773C9.83885 19.9773 10.1178 19.97 10.2294 19.9192C10.5816 19.7666 10.7803 19.3489 10.6757 18.982C10.606 18.7387 10.463 18.5643 10.2573 18.4663C10.0829 18.3827 10.0585 18.3827 8.71954 18.3718C7.97333 18.3646 7.12601 18.3682 6.83659 18.3791Z" fill="#060808" fill-opacity="0.12"/>
<path id="Vector_7" d="M6.59249 24.0127C6.28564 24.0345 6.16011 24.0854 5.99273 24.2706C5.70332 24.583 5.69634 25.0261 5.97879 25.3603C6.19149 25.6146 6.16011 25.6109 8.23484 25.6073C9.84232 25.6073 10.1178 25.6 10.2294 25.5528C10.6478 25.3676 10.8291 24.83 10.606 24.4304C10.4979 24.2379 10.2782 24.0563 10.1178 24.0273C9.96785 24.0018 6.93421 23.9873 6.59249 24.0127Z" fill="#060808" fill-opacity="0.12"/>
</g>
</g>
</svg>
