<svg width="32" height="32" viewBox="0 0 32 32" fill="none" xmlns="http://www.w3.org/2000/svg">
<g id="Delivered">
<g id="Black">
<path id="Vector" d="M3.01492 1.48196C2.62787 1.58729 2.21641 1.93236 2.03509 2.29921C1.86074 2.6588 1.86771 1.97958 1.86771 15.9492C1.86771 25.2186 1.87817 29.0325 1.90607 29.1887C1.96186 29.5119 2.09785 29.7771 2.33496 30.0241C2.57905 30.2747 2.8336 30.4164 3.16137 30.4745C3.31828 30.4999 4.66076 30.5108 7.65605 30.5035L11.9276 30.4926L12.067 30.4127C12.3425 30.2602 12.482 30.0204 12.4855 29.6935C12.4855 29.5192 12.4645 29.4429 12.3878 29.3013C12.2449 29.0506 12.074 28.9453 11.7462 28.9126C11.5963 28.8944 9.66453 28.8872 7.45729 28.8908L3.43684 28.8944V15.9746V3.05109H12.7644H22.092V5.2268C22.092 7.52237 22.092 7.5369 22.2594 7.76936C22.3605 7.91102 22.6499 8.06357 22.8243 8.06357C23.1555 8.06357 23.5077 7.80568 23.5879 7.50058C23.6123 7.4025 23.6263 6.63247 23.6263 5.07787C23.6263 2.95302 23.6228 2.78956 23.56 2.58253C23.4693 2.28105 23.3508 2.08491 23.1311 1.86334C22.9045 1.64178 22.7057 1.52918 22.4233 1.46743C22.2559 1.42748 20.3904 1.42021 12.7296 1.42021C3.89363 1.42021 3.23111 1.42384 3.01492 1.48196Z" fill="#060808" fill-opacity="0.12"/>
<path id="Vector_2" d="M7.83041 7.11919L6.27872 7.13735L6.11483 7.25359C5.81147 7.47515 5.69291 7.89649 5.83936 8.23066C5.92305 8.4268 6.13575 8.63383 6.29267 8.68105C6.47399 8.73191 19.17 8.73191 19.3513 8.67742C19.5291 8.62657 19.7732 8.38684 19.8464 8.18707C19.9197 7.9873 19.8952 7.72214 19.7837 7.51511C19.6965 7.35166 19.4524 7.16641 19.2885 7.13735C19.1456 7.1083 9.83192 7.0974 7.83041 7.11919Z" fill="#060808" fill-opacity="0.12"/>
<path id="Vector_3" d="M20.6623 12.4803C20.5961 12.4876 20.3834 12.513 20.1916 12.5348C19.0409 12.6619 17.7368 13.116 16.7047 13.748C15.6934 14.3655 14.5985 15.4442 13.929 16.4758C12.7156 18.35 12.2204 20.6202 12.5378 22.8467C12.9248 25.5491 14.4381 27.8919 16.7186 29.3085C17.7473 29.9514 19.0026 30.3836 20.1986 30.5144C20.7983 30.5798 22.1094 30.5398 22.6325 30.4381C24.3864 30.1076 25.8928 29.2976 27.1794 27.99C28.7834 26.3518 29.6098 24.4994 29.8016 22.1021C29.9167 20.6456 29.6029 18.9929 28.9299 17.5691C27.8489 15.2699 25.9311 13.5809 23.567 12.8436C23.2183 12.7346 22.5174 12.582 22.1303 12.5348C21.8026 12.4912 20.8541 12.4549 20.6623 12.4803ZM22.2698 14.1984C23.2427 14.3509 24.2434 14.7541 25.0908 15.3462C26.7819 16.523 27.9047 18.3791 28.1976 20.4785C28.2918 21.165 28.2778 22.1566 28.1628 22.8286C27.7129 25.4438 25.9485 27.6231 23.56 28.513C22.6499 28.8508 22.1826 28.9307 21.1331 28.9307C20.1323 28.9271 19.7348 28.8653 18.884 28.5748C16.3071 27.6958 14.4102 25.313 14.0546 22.5089C13.9813 21.9023 13.9883 21.0524 14.072 20.4386C14.4033 18.1067 15.7876 16.0653 17.803 14.9539C19.149 14.2129 20.6693 13.955 22.2698 14.1984Z" fill="#060808" fill-opacity="0.12"/>
<path id="Vector_4" d="M6.85406 12.7492C6.25082 12.771 6.18457 12.7891 5.97535 13.0325C5.65455 13.403 5.7208 13.9297 6.12877 14.2275L6.27174 14.3292L9.20426 14.3401C12.4715 14.351 12.3216 14.3619 12.5413 14.104C12.6912 13.9224 12.747 13.7698 12.747 13.5301C12.747 13.2904 12.6633 13.0942 12.4959 12.9489C12.2484 12.731 12.3495 12.7383 9.76566 12.7346C8.46154 12.731 7.15045 12.7383 6.85406 12.7492Z" fill="#060808" fill-opacity="0.12"/>
<path id="Vector_5" d="M6.83659 18.3791C6.26473 18.3973 6.19499 18.419 5.99275 18.6406C5.69985 18.9566 5.69636 19.4143 5.98577 19.723C6.23335 19.9882 6.14966 19.9809 8.23486 19.9773C9.83885 19.9773 10.1178 19.97 10.2294 19.9192C10.5816 19.7666 10.7803 19.3489 10.6757 18.982C10.606 18.7387 10.463 18.5643 10.2573 18.4663C10.0829 18.3827 10.0585 18.3827 8.71954 18.3718C7.97333 18.3646 7.12601 18.3682 6.83659 18.3791Z" fill="#060808" fill-opacity="0.12"/>
<path id="Vector_6" d="M6.59255 24.0127C6.2857 24.0345 6.16017 24.0854 5.99279 24.2706C5.70338 24.583 5.6964 25.0261 5.97885 25.3603C6.19155 25.6146 6.16017 25.6109 8.2349 25.6073C9.84238 25.6073 10.1179 25.6 10.2294 25.5528C10.6479 25.3676 10.8292 24.83 10.606 24.4304C10.4979 24.2379 10.2783 24.0563 10.1179 24.0273C9.96791 24.0018 6.93427 23.9873 6.59255 24.0127Z" fill="#060808" fill-opacity="0.12"/>
</g>
<path id="Vector 1 (Stroke)" d="M26.2044 19.495L19.7331 25.3197L16.862 22.7355L17.8047 21.887L19.7331 23.6227L25.2617 18.6465L26.2044 19.495Z" fill="#060808" fill-opacity="0.12"/>
</g>
</svg>
