<svg width="35" height="15" viewBox="0 0 35 15" fill="none" xmlns="http://www.w3.org/2000/svg">
<g id="GooglePay">
<g id="Pay">
<path id="Union" d="M30.9072 9.67358H30.9307L32.8945 4.71851H34.2734L30.0322 14.6521H28.7236L30.2998 11.1775L27.5176 4.71851H28.8965L30.9072 9.67358ZM24.2686 4.49292C25.2065 4.49292 25.9482 4.75015 26.4922 5.25659C27.036 5.76316 27.3035 6.4716 27.3037 7.36401V11.6189H26.0898V10.6619H26.0352C25.5069 11.4501 24.8126 11.8445 23.9375 11.8445C23.1966 11.8444 22.566 11.619 22.0693 11.1687C21.5807 10.7505 21.3045 10.1306 21.3203 9.47925C21.3205 8.76385 21.5882 8.20027 22.1162 7.77417C22.6444 7.34805 23.3545 7.13944 24.2373 7.1394C24.9939 7.13943 25.609 7.28409 26.0977 7.55737V7.25952C26.0974 6.81742 25.9081 6.39852 25.5771 6.10913C25.2383 5.80393 24.8045 5.63552 24.3555 5.6355C23.6462 5.63556 23.0857 5.94058 22.6758 6.55151L21.5566 5.83569C22.1558 4.94337 23.0627 4.493 24.2686 4.49292ZM18.4053 1.53394C19.1631 1.55728 19.8901 1.86702 20.4297 2.40991C21.5806 3.50372 21.6512 5.34574 20.5713 6.52808C20.524 6.57634 20.477 6.62532 20.4297 6.67358C19.8384 7.24465 19.1123 7.53394 18.2529 7.53394H16.1562V11.6199H14.8867V1.53394H18.4053ZM24.4346 8.18433C23.9222 8.18437 23.4885 8.31398 23.1416 8.56323C22.8028 8.81241 22.6291 9.12597 22.6289 9.50366C22.6289 9.84131 22.7869 10.1553 23.0469 10.3484C23.3306 10.5735 23.6776 10.6942 24.0322 10.6863C24.5684 10.6863 25.0815 10.4688 25.46 10.0828C25.8777 9.68068 26.0908 9.20572 26.0908 8.65894C25.6966 8.33743 25.144 8.17629 24.4346 8.18433ZM16.1562 6.29468H18.2852C18.7583 6.31076 19.2158 6.11807 19.5391 5.77222C20.2013 5.0726 20.1856 3.94691 19.5 3.27124C19.1767 2.94951 18.7425 2.77222 18.2852 2.77222H16.1562V6.29468Z" fill="#3C4043"/>
</g>
<g id="G">
<path id="Blue" d="M11.7761 6.64916C11.7761 6.25504 11.7445 5.86093 11.6814 5.47485H6.32812V7.70282H9.39505C9.2689 8.41866 8.85893 9.06211 8.25973 9.46427V10.912H10.0889C11.1611 9.90665 11.7761 8.41866 11.7761 6.64916Z" fill="#4285F4"/>
<path id="Green" d="M6.3273 12.3115C7.85682 12.3115 9.14982 11.7967 10.088 10.912L8.25891 9.46422C7.74644 9.81812 7.09206 10.0192 6.3273 10.0192C4.84509 10.0192 3.59151 8.99771 3.14212 7.63037H1.25781V9.1264C2.21968 11.0809 4.18282 12.3115 6.3273 12.3115Z" fill="#34A853"/>
<path id="Yellow" d="M3.14219 7.63052C2.90563 6.91467 2.90563 6.13448 3.14219 5.4106V3.92261H1.25758C0.445389 5.55537 0.445389 7.48574 1.25758 9.1185L3.14219 7.63052Z" fill="#FBBC04"/>
<path id="Red" d="M6.3273 3.02166C7.13936 3.00558 7.91989 3.31926 8.50332 3.89033L10.1274 2.23343C9.09463 1.25216 7.73856 0.713268 6.3273 0.729354C4.18282 0.729354 2.21967 1.968 1.25781 3.9225L3.14212 5.41853C3.59151 4.04315 4.84509 3.02166 6.3273 3.02166Z" fill="#EA4335"/>
</g>
</g>
</svg>
