<svg width="32" height="19" viewBox="0 0 32 19" fill="none" xmlns="http://www.w3.org/2000/svg">
<g id="Mastercard">
<path id="Left" d="M21.6426 0.00317383C26.8277 0.00317383 31.0311 4.17949 31.0312 9.3313C31.0312 14.4833 26.8278 18.6604 21.6426 18.6604C19.3177 18.6604 17.1925 17.8177 15.5527 16.427C13.913 17.8177 11.7878 18.6604 9.46289 18.6604C4.27768 18.6604 0.0742188 14.4833 0.0742188 9.3313C0.0744019 4.17949 4.2778 0.00317383 9.46289 0.00317383C11.7874 0.0031798 13.9131 0.844311 15.5527 2.23462C17.1924 0.844298 19.3181 0.00321194 21.6426 0.00317383Z" fill="#ED0006"/>
<path id="Right" d="M21.6445 0.00317383C26.8296 0.00317383 31.033 4.17949 31.0332 9.3313C31.0332 14.4833 26.8297 18.6604 21.6445 18.6604C19.3196 18.6604 17.1944 17.8177 15.5547 16.427C17.572 14.716 18.8535 12.1733 18.8535 9.3313C18.8534 6.4891 17.5724 3.94555 15.5547 2.23462C17.1943 0.844305 19.32 0.00319587 21.6445 0.00317383Z" fill="#F9A000"/>
<path id="Middle" d="M15.5527 2.23462C17.5704 3.94555 18.8515 6.48915 18.8516 9.3313C18.8516 12.1732 17.57 14.716 15.5527 16.427C13.5353 14.716 12.2539 12.1733 12.2539 9.3313C12.254 6.48907 13.5349 3.94555 15.5527 2.23462Z" fill="#FF5E00"/>
</g>
</svg>
