<svg width="48" height="34" viewBox="0 0 48 34" fill="none" xmlns="http://www.w3.org/2000/svg">
<g id="Payment method icon">
<rect x="1.34375" y="0.5" width="46.0769" height="32.4154" rx="3.5" fill="white"/>
<rect x="1.34375" y="0.5" width="46.0769" height="32.4154" rx="3.5" stroke="#F2F4F7"/>
<path id="visa-logo" fill-rule="evenodd" clip-rule="evenodd" d="M15.7271 22.0795H12.8751L10.7365 13.6339C10.635 13.2454 10.4195 12.9019 10.1025 12.7401C9.31125 12.3333 8.43939 12.0095 7.48828 11.8462V11.5211H12.0825C12.7166 11.5211 13.1922 12.0095 13.2714 12.5768L14.3811 18.6689L17.2316 11.5211H20.0043L15.7271 22.0795ZM21.5895 22.0795H18.8961L21.114 11.5211H23.8074L21.5895 22.0795ZM27.292 14.4461C27.3713 13.8774 27.8468 13.5523 28.4017 13.5523C29.2735 13.4706 30.2232 13.6339 31.0158 14.0393L31.4914 11.766C30.6988 11.4409 29.8269 11.2776 29.0357 11.2776C26.4216 11.2776 24.5193 12.7401 24.5193 14.7698C24.5193 16.314 25.8667 17.1247 26.8179 17.6132C27.8468 18.1002 28.2431 18.4253 28.1639 18.9124C28.1639 19.6429 27.3713 19.9681 26.5801 19.9681C25.629 19.9681 24.6779 19.7246 23.8074 19.3178L23.3318 21.5924C24.2829 21.9978 25.3119 22.1611 26.263 22.1611C29.1942 22.2413 31.0158 20.7803 31.0158 18.5872C31.0158 15.8255 27.292 15.6636 27.292 14.4461ZM40.4421 22.0795L38.3035 11.5211H36.0064C35.5308 11.5211 35.0553 11.8462 34.8967 12.3333L30.9366 22.0795H33.7092L34.2627 20.5367H37.6694L37.9865 22.0795H40.4421ZM36.4027 14.3644L37.1939 18.3437H34.976L36.4027 14.3644Z" fill="#172B85"/>
</g>
</svg>
